
<svg>
  <symbol  xmlns="http://www.w3.org/2000/svg" viewBox="0 0 12 21" id="bamboo">
    <mask id="path-1-inside-1_47827_54" fill="white">
      <path fill-rule="evenodd" clip-rule="evenodd" d="M10.3804 19.9314C10.1302 18.9283 9.38426 17.7502 8.80318 16.4777C9.30125 17.5684 9.79932 18.659 10.3804 19.9314ZM11.7837 19.8168C10.9547 18.4569 10.4556 16.9084 9.95636 15.3599C9.54243 14.9089 9.21263 15.0974 8.88283 15.286C8.30623 15.8449 7.72852 15.946 8.39037 16.4845C9.21936 17.8444 9.80044 19.1169 10.2166 20.4836C10.3815 20.3893 10.7113 20.2007 10.8762 20.1064C11.206 19.9179 11.2879 19.6418 11.7837 19.8168ZM8.2221 15.2053C7.97194 14.2022 7.22596 13.024 6.64488 11.7516C7.14295 12.8423 7.64102 13.9329 8.2221 15.2053ZM5.98079 10.2974C5.81364 9.47605 4.98465 8.11615 4.48658 7.0255C4.98465 8.11615 5.3997 9.02501 6.0638 10.4792C6.0638 10.4792 6.0638 10.4792 5.98079 10.2974ZM7.38413 10.1828C6.63814 9.00462 6.13895 7.45615 5.55675 5.7259C5.22582 5.45664 4.89602 5.64521 4.56622 5.83378C3.98963 6.39269 3.41191 6.49377 4.07376 7.0323C4.81974 8.21043 5.48384 9.66462 5.90002 11.0313C6.06492 10.937 6.39472 10.7485 6.55962 10.6542C6.80641 10.2838 6.97131 10.1896 7.38413 10.1828ZM3.82248 5.57131C3.65534 4.74993 2.82634 3.39003 2.32827 2.29938C2.82634 3.39003 3.2414 4.29889 3.90549 5.75309L3.82248 5.57131ZM5.22582 5.45664C4.47984 4.2785 3.98065 2.73003 3.39845 0.999778C3.06752 0.730516 2.73772 0.919086 2.40792 1.10766C1.83133 1.66657 1.1706 1.58588 1.91546 2.30618C2.66144 3.48431 3.32554 4.9385 3.74172 6.3052C3.90662 6.21092 4.23642 6.02235 4.31831 5.74629C4.64811 5.55772 4.81301 5.46343 5.22582 5.45664ZM4.90837 10.6814C4.24764 10.6007 3.75182 10.4257 3.09109 10.345C3.75182 10.4257 4.16463 10.4189 4.90837 10.6814C3.91672 10.3314 3.17298 10.0689 2.26434 9.90077C3.00808 10.1632 3.66881 10.2439 4.66046 10.5939C3.58579 10.0622 2.67716 9.89397 1.85041 9.44973C2.59414 9.7122 3.33788 9.97466 4.41254 10.5064C3.50278 9.88038 2.51113 9.53043 1.51948 9.18047C2.51113 9.53043 3.58579 10.0622 4.90837 10.6814C5.15628 10.7689 5.15628 10.7689 4.90837 10.6814ZM4.57857 10.8699C4.57857 10.8699 4.41367 10.9642 4.33065 10.7825C3.09221 10.8028 2.01867 10.7289 1.02815 10.8368C1.93679 11.005 2.92731 10.8971 3.91784 10.7892C2.92731 10.8971 2.10169 10.9107 1.35907 11.1061C2.1847 11.0925 3.17523 10.9846 4.16575 10.8767C3.34013 10.8903 2.59751 11.0857 1.8549 11.2811C2.84542 11.1732 3.58804 10.9778 4.41367 10.9642C3.83595 11.0653 3.25824 11.1664 2.68052 11.2675C3.25824 11.1664 3.83595 11.0653 4.41367 10.9642C4.57857 10.8699 4.57857 10.8699 4.57857 10.8699ZM5.07664 11.9606C4.74683 12.1492 4.50004 12.5195 4.00534 12.8024C4.33514 12.6138 4.58193 12.2434 5.07664 11.9606C4.58193 12.2434 4.00534 12.8024 3.51064 13.0852C4.00534 12.8024 4.41703 12.3377 4.91174 12.0549C4.25213 12.432 3.59253 12.8092 3.01594 13.3681C3.42763 12.9034 4.08723 12.5263 4.74683 12.1492C4.08723 12.5263 3.42763 12.9034 2.76802 13.2806C3.42763 12.9034 4.16912 12.2502 4.99362 11.7788C5.15853 11.6845 5.24154 11.8663 5.07664 11.9606ZM5.15965 12.1424C4.99475 12.2366 4.99475 12.2366 4.99475 12.2366C4.33627 13.0716 3.84269 13.8123 3.51401 14.4587C3.84269 13.8123 4.33627 13.0716 4.74796 12.607C4.41928 13.2534 4.00759 13.718 3.67891 14.3644C4.00759 13.718 4.50117 12.9773 4.82985 12.3309C4.50117 12.9773 4.33739 13.5294 4.0906 13.8998C4.33739 13.5294 4.66607 12.883 4.99475 12.2366C4.83097 12.7888 4.58418 13.1591 4.50229 13.4352C4.74908 13.0648 4.74796 12.607 4.99475 12.2366L5.15965 12.1424ZM5.57134 11.6777C5.73624 11.5834 5.73624 11.5834 5.90114 11.4892C5.98415 11.6709 5.98415 11.6709 6.23206 11.7584C7.06106 13.1183 7.64214 14.3907 8.05832 15.7574C8.22322 15.6632 8.55302 15.4746 8.71792 15.3803C8.96471 15.01 9.12962 14.9157 9.54243 14.9089C8.79645 13.7307 8.29725 12.1823 7.71505 10.452C7.38413 10.1828 7.05432 10.3713 6.72452 10.5599C6.31283 11.0245 5.90002 11.0313 5.81813 11.3074C5.73512 11.1256 5.4872 11.0381 5.40419 10.8563C5.32118 10.6746 5.07327 10.5871 4.65933 10.136C3.58467 9.60432 1.84928 8.9919 0.940646 8.82372C1.18968 9.36904 2.51226 9.98826 3.58692 10.52C2.51338 10.4461 1.11004 10.5608 0.285532 11.0322C1.11228 11.4764 4.16688 11.3346 5.07439 11.0449C5.07439 11.0449 5.23929 10.9506 5.3223 11.1324C5.57022 11.2199 5.81813 11.3074 5.90114 11.4892C5.73624 11.5834 5.57134 11.6777 5.32343 11.5902C5.32343 11.5902 5.15853 11.6845 4.82872 11.8731C3.92121 12.1627 2.84991 13.0045 2.27332 13.5634C2.76915 13.7384 3.75855 13.1727 4.50004 12.5195C4.00646 13.2602 3.431 14.2769 3.10232 14.9233C3.84493 14.728 5.16077 12.6002 5.24154 11.8663C5.40644 11.772 5.40644 11.772 5.57134 11.6777Z"></path>
    </mask>
    <path fill-rule="evenodd" clip-rule="evenodd" d="M10.3804 19.9314C10.1302 18.9283 9.38426 17.7502 8.80318 16.4777C9.30125 17.5684 9.79932 18.659 10.3804 19.9314ZM11.7837 19.8168C10.9547 18.4569 10.4556 16.9084 9.95636 15.3599C9.54243 14.9089 9.21263 15.0974 8.88283 15.286C8.30623 15.8449 7.72852 15.946 8.39037 16.4845C9.21936 17.8444 9.80044 19.1169 10.2166 20.4836C10.3815 20.3893 10.7113 20.2007 10.8762 20.1064C11.206 19.9179 11.2879 19.6418 11.7837 19.8168ZM8.2221 15.2053C7.97194 14.2022 7.22596 13.024 6.64488 11.7516C7.14295 12.8423 7.64102 13.9329 8.2221 15.2053ZM5.98079 10.2974C5.81364 9.47605 4.98465 8.11615 4.48658 7.0255C4.98465 8.11615 5.3997 9.02501 6.0638 10.4792C6.0638 10.4792 6.0638 10.4792 5.98079 10.2974ZM7.38413 10.1828C6.63814 9.00462 6.13895 7.45615 5.55675 5.7259C5.22582 5.45664 4.89602 5.64521 4.56622 5.83378C3.98963 6.39269 3.41191 6.49377 4.07376 7.0323C4.81974 8.21043 5.48384 9.66462 5.90002 11.0313C6.06492 10.937 6.39472 10.7485 6.55962 10.6542C6.80641 10.2838 6.97131 10.1896 7.38413 10.1828ZM3.82248 5.57131C3.65534 4.74993 2.82634 3.39003 2.32827 2.29938C2.82634 3.39003 3.2414 4.29889 3.90549 5.75309L3.82248 5.57131ZM5.22582 5.45664C4.47984 4.2785 3.98065 2.73003 3.39845 0.999778C3.06752 0.730516 2.73772 0.919086 2.40792 1.10766C1.83133 1.66657 1.1706 1.58588 1.91546 2.30618C2.66144 3.48431 3.32554 4.9385 3.74172 6.3052C3.90662 6.21092 4.23642 6.02235 4.31831 5.74629C4.64811 5.55772 4.81301 5.46343 5.22582 5.45664ZM4.90837 10.6814C4.24764 10.6007 3.75182 10.4257 3.09109 10.345C3.75182 10.4257 4.16463 10.4189 4.90837 10.6814C3.91672 10.3314 3.17298 10.0689 2.26434 9.90077C3.00808 10.1632 3.66881 10.2439 4.66046 10.5939C3.58579 10.0622 2.67716 9.89397 1.85041 9.44973C2.59414 9.7122 3.33788 9.97466 4.41254 10.5064C3.50278 9.88038 2.51113 9.53043 1.51948 9.18047C2.51113 9.53043 3.58579 10.0622 4.90837 10.6814C5.15628 10.7689 5.15628 10.7689 4.90837 10.6814ZM4.57857 10.8699C4.57857 10.8699 4.41367 10.9642 4.33065 10.7825C3.09221 10.8028 2.01867 10.7289 1.02815 10.8368C1.93679 11.005 2.92731 10.8971 3.91784 10.7892C2.92731 10.8971 2.10169 10.9107 1.35907 11.1061C2.1847 11.0925 3.17523 10.9846 4.16575 10.8767C3.34013 10.8903 2.59751 11.0857 1.8549 11.2811C2.84542 11.1732 3.58804 10.9778 4.41367 10.9642C3.83595 11.0653 3.25824 11.1664 2.68052 11.2675C3.25824 11.1664 3.83595 11.0653 4.41367 10.9642C4.57857 10.8699 4.57857 10.8699 4.57857 10.8699ZM5.07664 11.9606C4.74683 12.1492 4.50004 12.5195 4.00534 12.8024C4.33514 12.6138 4.58193 12.2434 5.07664 11.9606C4.58193 12.2434 4.00534 12.8024 3.51064 13.0852C4.00534 12.8024 4.41703 12.3377 4.91174 12.0549C4.25213 12.432 3.59253 12.8092 3.01594 13.3681C3.42763 12.9034 4.08723 12.5263 4.74683 12.1492C4.08723 12.5263 3.42763 12.9034 2.76802 13.2806C3.42763 12.9034 4.16912 12.2502 4.99362 11.7788C5.15853 11.6845 5.24154 11.8663 5.07664 11.9606ZM5.15965 12.1424C4.99475 12.2366 4.99475 12.2366 4.99475 12.2366C4.33627 13.0716 3.84269 13.8123 3.51401 14.4587C3.84269 13.8123 4.33627 13.0716 4.74796 12.607C4.41928 13.2534 4.00759 13.718 3.67891 14.3644C4.00759 13.718 4.50117 12.9773 4.82985 12.3309C4.50117 12.9773 4.33739 13.5294 4.0906 13.8998C4.33739 13.5294 4.66607 12.883 4.99475 12.2366C4.83097 12.7888 4.58418 13.1591 4.50229 13.4352C4.74908 13.0648 4.74796 12.607 4.99475 12.2366L5.15965 12.1424ZM5.57134 11.6777C5.73624 11.5834 5.73624 11.5834 5.90114 11.4892C5.98415 11.6709 5.98415 11.6709 6.23206 11.7584C7.06106 13.1183 7.64214 14.3907 8.05832 15.7574C8.22322 15.6632 8.55302 15.4746 8.71792 15.3803C8.96471 15.01 9.12962 14.9157 9.54243 14.9089C8.79645 13.7307 8.29725 12.1823 7.71505 10.452C7.38413 10.1828 7.05432 10.3713 6.72452 10.5599C6.31283 11.0245 5.90002 11.0313 5.81813 11.3074C5.73512 11.1256 5.4872 11.0381 5.40419 10.8563C5.32118 10.6746 5.07327 10.5871 4.65933 10.136C3.58467 9.60432 1.84928 8.9919 0.940646 8.82372C1.18968 9.36904 2.51226 9.98826 3.58692 10.52C2.51338 10.4461 1.11004 10.5608 0.285532 11.0322C1.11228 11.4764 4.16688 11.3346 5.07439 11.0449C5.07439 11.0449 5.23929 10.9506 5.3223 11.1324C5.57022 11.2199 5.81813 11.3074 5.90114 11.4892C5.73624 11.5834 5.57134 11.6777 5.32343 11.5902C5.32343 11.5902 5.15853 11.6845 4.82872 11.8731C3.92121 12.1627 2.84991 13.0045 2.27332 13.5634C2.76915 13.7384 3.75855 13.1727 4.50004 12.5195C4.00646 13.2602 3.431 14.2769 3.10232 14.9233C3.84493 14.728 5.16077 12.6002 5.24154 11.8663C5.40644 11.772 5.40644 11.772 5.57134 11.6777Z" fill="white"></path>
  </symbol>



  
</svg>